<mxfile host="app.diagrams.net" agent="Mozilla/5.0 (Macintosh; Intel Mac OS X 10_15_7) AppleWebKit/537.36 (KHTML, like Gecko) Chrome/131.0.0.0 Safari/537.36 Edg/131.0.0.0" version="26.0.6">
  <diagram name="第 1 页" id="FFLkcj4Z6Y7VCHGBpM4j">
    <mxGraphModel dx="651" dy="-3122" grid="1" gridSize="10" guides="1" tooltips="1" connect="1" arrows="1" fold="1" page="1" pageScale="1" pageWidth="827" pageHeight="1169" math="0" shadow="0">
      <root>
        <mxCell id="0" />
        <mxCell id="1" parent="0" />
        <mxCell id="2F6rjFCnAvOsnTfQ9u2H-25" value="" style="rounded=0;whiteSpace=wrap;html=1;" vertex="1" parent="1">
          <mxGeometry x="600" y="4300" width="90" height="55.5" as="geometry" />
        </mxCell>
        <mxCell id="2F6rjFCnAvOsnTfQ9u2H-17" value="" style="rounded=0;whiteSpace=wrap;html=1;" vertex="1" parent="1">
          <mxGeometry x="450" y="4260" width="240" height="160" as="geometry" />
        </mxCell>
        <mxCell id="2F6rjFCnAvOsnTfQ9u2H-2" value="&lt;font face=&quot;Times New Roman&quot;&gt;Async Runtime&lt;/font&gt;" style="text;html=1;align=center;verticalAlign=middle;resizable=0;points=[];autosize=1;strokeColor=none;fillColor=none;" vertex="1" parent="1">
          <mxGeometry x="460" y="4270" width="100" height="30" as="geometry" />
        </mxCell>
        <mxCell id="2F6rjFCnAvOsnTfQ9u2H-3" value="&lt;font face=&quot;Times New Roman&quot;&gt;syscall lib&lt;/font&gt;" style="shape=note;whiteSpace=wrap;html=1;backgroundOutline=1;darkOpacity=0.05;size=14;" vertex="1" parent="1">
          <mxGeometry x="450" y="4380" width="80" height="40" as="geometry" />
        </mxCell>
        <mxCell id="2F6rjFCnAvOsnTfQ9u2H-4" value="" style="rounded=0;whiteSpace=wrap;html=1;" vertex="1" parent="1">
          <mxGeometry x="540" y="4380" width="50" height="10" as="geometry" />
        </mxCell>
        <mxCell id="2F6rjFCnAvOsnTfQ9u2H-5" value="" style="rounded=0;whiteSpace=wrap;html=1;" vertex="1" parent="1">
          <mxGeometry x="540" y="4390" width="50" height="10" as="geometry" />
        </mxCell>
        <mxCell id="2F6rjFCnAvOsnTfQ9u2H-6" value="" style="rounded=0;whiteSpace=wrap;html=1;" vertex="1" parent="1">
          <mxGeometry x="540" y="4400" width="50" height="10" as="geometry" />
        </mxCell>
        <mxCell id="2F6rjFCnAvOsnTfQ9u2H-7" value="" style="rounded=0;whiteSpace=wrap;html=1;" vertex="1" parent="1">
          <mxGeometry x="540" y="4410" width="50" height="10" as="geometry" />
        </mxCell>
        <mxCell id="2F6rjFCnAvOsnTfQ9u2H-8" value="&lt;font style=&quot;font-size: 10px;&quot; face=&quot;Times New Roman&quot;&gt;Task Queue&lt;/font&gt;" style="text;html=1;align=center;verticalAlign=middle;resizable=0;points=[];autosize=1;strokeColor=none;fillColor=none;" vertex="1" parent="1">
          <mxGeometry x="530" y="4350" width="70" height="30" as="geometry" />
        </mxCell>
        <mxCell id="2F6rjFCnAvOsnTfQ9u2H-11" value="" style="rounded=0;whiteSpace=wrap;html=1;" vertex="1" parent="1">
          <mxGeometry x="600" y="4362.5" width="90" height="55" as="geometry" />
        </mxCell>
        <mxCell id="2F6rjFCnAvOsnTfQ9u2H-12" value="&lt;font face=&quot;Times New Roman&quot;&gt;&lt;span style=&quot;font-size: 10px;&quot;&gt;uintr vec map&lt;/span&gt;&lt;/font&gt;" style="rounded=0;whiteSpace=wrap;html=1;" vertex="1" parent="1">
          <mxGeometry x="605" y="4362.5" width="85" height="15" as="geometry" />
        </mxCell>
        <mxCell id="2F6rjFCnAvOsnTfQ9u2H-13" value="&lt;font style=&quot;font-size: 10px;&quot; face=&quot;Times New Roman&quot;&gt;cap 1&lt;/font&gt;" style="rounded=0;whiteSpace=wrap;html=1;" vertex="1" parent="1">
          <mxGeometry x="660" y="4378.5" width="30" height="18" as="geometry" />
        </mxCell>
        <mxCell id="2F6rjFCnAvOsnTfQ9u2H-14" value="&lt;font style=&quot;font-size: 10px;&quot; face=&quot;Times New Roman&quot;&gt;uintr vec&lt;/font&gt;" style="rounded=0;whiteSpace=wrap;html=1;" vertex="1" parent="1">
          <mxGeometry x="605" y="4378.5" width="55" height="18" as="geometry" />
        </mxCell>
        <mxCell id="2F6rjFCnAvOsnTfQ9u2H-15" value="&lt;font style=&quot;font-size: 10px;&quot; face=&quot;Times New Roman&quot;&gt;cap 2&lt;/font&gt;" style="rounded=0;whiteSpace=wrap;html=1;" vertex="1" parent="1">
          <mxGeometry x="660" y="4396.5" width="30" height="18" as="geometry" />
        </mxCell>
        <mxCell id="2F6rjFCnAvOsnTfQ9u2H-16" value="&lt;font style=&quot;font-size: 10px;&quot; face=&quot;Times New Roman&quot;&gt;uintr vec&lt;/font&gt;" style="rounded=0;whiteSpace=wrap;html=1;" vertex="1" parent="1">
          <mxGeometry x="605" y="4396.5" width="55" height="18" as="geometry" />
        </mxCell>
        <mxCell id="2F6rjFCnAvOsnTfQ9u2H-19" value="&lt;font style=&quot;font-size: 10px;&quot; face=&quot;Times New Roman&quot;&gt;sender map&lt;/font&gt;" style="rounded=0;whiteSpace=wrap;html=1;" vertex="1" parent="1">
          <mxGeometry x="605" y="4300" width="85" height="15" as="geometry" />
        </mxCell>
        <mxCell id="2F6rjFCnAvOsnTfQ9u2H-20" value="&lt;font style=&quot;font-size: 10px;&quot; face=&quot;Times New Roman&quot;&gt;cap 7&lt;/font&gt;" style="rounded=0;whiteSpace=wrap;html=1;" vertex="1" parent="1">
          <mxGeometry x="605" y="4316" width="35" height="18" as="geometry" />
        </mxCell>
        <mxCell id="2F6rjFCnAvOsnTfQ9u2H-21" value="&lt;font style=&quot;font-size: 10px;&quot; face=&quot;Times New Roman&quot;&gt;sender id&lt;/font&gt;" style="rounded=0;whiteSpace=wrap;html=1;" vertex="1" parent="1">
          <mxGeometry x="640" y="4316" width="50" height="18" as="geometry" />
        </mxCell>
        <mxCell id="2F6rjFCnAvOsnTfQ9u2H-22" value="&lt;font style=&quot;font-size: 10px;&quot; face=&quot;Times New Roman&quot;&gt;cap 8&lt;/font&gt;" style="rounded=0;whiteSpace=wrap;html=1;" vertex="1" parent="1">
          <mxGeometry x="605" y="4334" width="35" height="18" as="geometry" />
        </mxCell>
        <mxCell id="2F6rjFCnAvOsnTfQ9u2H-23" value="&lt;font style=&quot;font-size: 10px;&quot; face=&quot;Times New Roman&quot;&gt;sender id&lt;/font&gt;" style="rounded=0;whiteSpace=wrap;html=1;" vertex="1" parent="1">
          <mxGeometry x="640" y="4334" width="50" height="18" as="geometry" />
        </mxCell>
        <mxCell id="2F6rjFCnAvOsnTfQ9u2H-28" value="&lt;font face=&quot;Times New Roman&quot;&gt;Priority Scheduler&lt;/font&gt;" style="rounded=1;whiteSpace=wrap;html=1;" vertex="1" parent="1">
          <mxGeometry x="470" y="4315" width="120" height="30" as="geometry" />
        </mxCell>
      </root>
    </mxGraphModel>
  </diagram>
</mxfile>
